
<svg
  width="800"
  height="300"
  viewBox="0 0 800 300"
  xmlns="http://www.w3.org/2000/svg"
  xmlns:xlink="http://www.w3.org/1999/xlink">

  <defs>
    <clipPath id="stampEdge">
      <path d="
        M20 0
        L60 0 L70 10 L80 0 L120 0 L130 10 L140 0
        L180 0 L190 10 L200 0 L240 0 L250 10 L260 0
        L300 0 L310 10 L320 0 L360 0 L370 10 L380 0
        L420 0 L430 10 L440 0 L480 0 L490 10 L500 0
        L540 0 L550 10 L560 0 L600 0 L610 10 L620 0
        L660 0 L670 10 L680 0 L720 0 L740 10 L760 0
        L800 0

        L800 280
        L760 290 L740 280 L720 290 L680 280 L660 290
        L620 280 L600 290 L560 280 L540 290 L500 280
        L480 290 L440 280 L420 290 L380 280 L360 290
        L320 280 L300 290 L260 280 L240 290 L200 280
        L180 290 L140 280 L120 290 L80 280 L60 290
        L20 280 L0 290

        L0 20
        L10 60 L0 70 L10 80 L0 120 L10 130 L0 140
        L10 180 L0 190 L10 200 L0 240 L10 250 L0 260
        L10 300

        Z" />
    </clipPath>
  </defs>

  <image
    xlink:href="./Vision to Reality Logo.png"
    href="./Vision to Reality Logo.png"
    width="800"
    height="300"
    preserveAspectRatio="xMidYMid meet"
    clip-path="url(#stampEdge)" />
</svg>